<svg xmlns="http://www.w3.org/2000/svg" viewBox="0 0 24 24" fill="currentColor">
  <!-- Wizard Hat -->
  <path d="M9.5,3.5c0,0.5,0.1,1,0.3,1.4C9.9,5.3,10,5.6,10,6c0,0.5-0.4,1-1,1C8.6,7,8.1,6.7,7.8,6.3
  C7.5,5.9,7.2,5.5,6.9,5.2C6.4,4.6,6,4.2,6,3.5C6,2.7,6.7,2,7.5,2h0.5C8.7,2,9.5,2.7,9.5,3.5z" 
  fill="#8b5cf6" stroke="#4c1d95" stroke-width="0.5"/>
  
  <!-- Smoke/Magic from pipe -->
  <path d="M19,8.9c-0.2-0.3-0.5-0.5-0.8-0.7C17.8,8,17.4,7.8,17,7.5c-0.4-0.3-0.7-0.6-0.9-1
  c-0.2-0.4-0.3-0.8-0.1-1.2c0.1-0.4,0.4-0.7,0.8-0.9c0.7-0.3,1.5,0,1.8,0.7c0.1,0.2,0.1,0.4,0.1,0.6
  c0,0.3,0.2,0.6,0.5,0.7c0.4,0.1,0.8-0.1,0.9-0.5c0.1-0.4,0.1-0.8,0-1.1c-0.5-1.6-2.3-2.4-3.9-1.9
  c-0.9,0.3-1.5,1-1.8,1.9c-0.3,0.9-0.2,1.8,0.3,2.6c0.3,0.6,0.8,1.1,1.3,1.5c0.4,0.3,0.9,0.6,1.3,0.9
  c0.3,0.2,0.5,0.5,0.7,0.8c0.2,0.3,0.2,0.7,0.1,1.1c-0.1,0.4-0.4,0.6-0.8,0.8c-0.7,0.3-1.5,0-1.8-0.7
  c-0.1-0.2-0.1-0.4-0.1-0.6c0-0.3-0.2-0.6-0.5-0.7c-0.4-0.1-0.8,0.1-0.9,0.5c-0.1,0.4-0.1,0.8,0,1.1
  c0.5,1.6,2.3,2.4,3.9,1.9C19.4,13.4,20.1,11,19,8.9z" 
  fill="#c4b5fd" stroke="#8b5cf6" stroke-width="0.3"/>
  
  <!-- Wizard Staff/Wand -->
  <path d="M13.7,7.1c-0.3-0.3-0.7-0.5-1.1-0.5c-0.4,0-0.8,0.1-1.1,0.5L3.3,16.3C3.1,16.5,3,16.7,3,17
  c0,0.3,0.1,0.5,0.3,0.7l3,3C6.5,20.9,6.7,21,7,21c0.3,0,0.5-0.1,0.7-0.3l9.2-8.2c0.6-0.6,0.6-1.6,0-2.2L13.7,7.1z
  M6.5,18.5L5.5,17.5l7.6-7.6l1,1L6.5,18.5z" 
  fill="#7c3aed" stroke="#4338ca" stroke-width="0.5"/>
  
  <!-- Magic Sparkles -->
  <path d="M18.7,2.7c-0.4-0.4-1-0.4-1.4,0L16,4C15.6,4.4,15.6,5,16,5.4s1,0.4,1.4,0l1.3-1.3
  C19.1,3.7,19.1,3.1,18.7,2.7z" 
  fill="#fef3c7" stroke="#fbbf24" stroke-width="0.3"/>
  
  <path d="M19,20.5L19,20.5c-0.3-0.3-0.7-0.3-1,0l-2,2c-0.3,0.3-0.3,0.7,0,1c0.3,0.3,0.7,0.3,1,0l2-2
  C19.3,21.2,19.3,20.8,19,20.5z" 
  fill="#fef3c7" stroke="#fbbf24" stroke-width="0.3"/>
  
  <path d="M12,18c-0.3-0.3-0.7-0.3-1,0l-2,2c-0.3,0.3-0.3,0.7,0,1c0.3,0.3,0.7,0.3,1,0l2-2
  C12.3,18.7,12.3,18.3,12,18z" 
  fill="#fef3c7" stroke="#fbbf24" stroke-width="0.3"/>
  
  <path d="M20,14c-0.3-0.3-0.7-0.3-1,0l-3,3c-0.3,0.3-0.3,0.7,0,1c0.3,0.3,0.7,0.3,1,0l3-3
  C20.3,14.7,20.3,14.3,20,14z" 
  fill="#fef3c7" stroke="#fbbf24" stroke-width="0.3"/>
  
  <!-- Beard for wizard face hint -->
  <path d="M11,7.5c0,0,0.5,1,1.5,1s1.5-1,1.5-1s0,2-1.5,2S11,7.5,11,7.5z" 
  fill="#94a3b8" stroke="#64748b" stroke-width="0.3"/>
</svg> 